:SAMPLES-PER-SECOND 30
:FULLY-SPECIFIED
:DEGREES
350
root  48.953 37.939 13.6045 -173.835 33.6457 174.784
RightUpLeg  -34.0661 -16.3995 -15.7522
RightLeg  15.6975 -5.68502 -2.0309
RightFoot  -1.38102 -0.477681 5.32785
RightToes  0.000482159 0.542163 -0.142577
Spine  48.7504 -3.12172 4.53496
Spine1  11.3208 -0.474213 -1.79645
HEad  -21.4237 -5.26193 -8.59017
LeftShoulder1  7.17522 -18.2564 -26.7975
LeftArm  -14.195 -36.4665 -32.1078
LeftForeArm  26.6027 -10.7891 -5.57325
LeftHand  -0.25398 0.0180481 5.50724
RightShoulder  2.35935 7.35607 14.931
RightArm  -21.3519 42.7369 37.5297
RightForeArm  6.23543 11.105 4.72821
RightHand  -1.0002 2.83883 -14.3149
LeftUpLeg  -32.4776 13.3677 -12.1201
LeftLeg  31.3703 1.98141 1.65828
LeftFoot  -8.31696 -0.146194 7.4124
LeftToes  1.06248e-005 4.65855e-005 -8.18498e-006
351
root  50.4135 37.7067 14.0353 -172.225 29.2661 174.43
RightUpLeg  -34.3818 -15.3156 -17.0514
RightLeg  12.7544 -1.38886 -0.618169
RightFoot  1.40906 -1.011 8.98524
RightToes  0.000482159 0.542163 -0.142577
Spine  51.1588 -3.77709 6.10677
Spine1  10.7645 -0.384941 -1.30947
HEad  -24.0326 -7.76662 -6.18255
LeftShoulder1  7.0536 -18.7824 -25.4183
LeftArm  -13.1323 -41.6407 -34.8006
LeftForeArm  26.7658 -10.7131 -5.7561
LeftHand  -0.25398 0.0180481 5.50724
RightShoulder  2.14584 7.11333 13.2648
RightArm  -23.4529 45.4433 34.9626
RightForeArm  5.30461 9.14441 4.48201
RightHand  -1.14796 3.36106 -15.4539
LeftUpLeg  -34.9223 10.5809 -10.2613
LeftLeg  33.8896 0.569884 0.767457
LeftFoot  -8.53963 -0.102124 6.27339
LeftToes  1.06248e-005 4.65855e-005 -8.18498e-006
352
root  51.8864 37.3723 14.4865 -169.868 24.9385 174.387
RightUpLeg  -37.9446 -18.5315 -15.0191
RightLeg  16.4994 2.8942 0.956951
RightFoot  6.33127 -1.75782 11.6288
RightToes  0.000482159 0.542163 -0.142577
Spine  53.27 -4.54313 7.8768
Spine1  9.62087 -0.31384 -0.708316
HEad  -26.3233 -9.45718 -4.11361
LeftShoulder1  6.83189 -19.2866 -23.6654
LeftArm  -13.0474 -46.5617 -37.7882
LeftForeArm  26.6267 -10.0358 -5.68548
LeftHand  -0.25398 0.0180481 5.50724
RightShoulder  1.97091 6.99012 11.6875
RightArm  -25.9664 48.4653 31.4019
RightForeArm  4.93556 6.50434 3.97492
RightHand  -1.18579 3.59996 -15.5407
LeftUpLeg  -39.0346 9.59086 -8.75622
LeftLeg  37.2696 -0.649765 -0.153815
LeftFoot  -8.24442 -0.0810633 4.862
LeftToes  1.06248e-005 4.65855e-005 -8.18498e-006
353
root  53.3217 37.0166 14.9037 -166.57 21.2712 174.444
RightUpLeg  -44.4115 -23.9847 -10.0539
RightLeg  22.9406 5.2855 2.18656
RightFoot  8.71159 -1.82642 10.6296
RightToes  0.000482159 0.542163 -0.142577
Spine  54.7975 -5.30769 9.50495
Spine1  8.30802 -0.114203 -0.640458
HEad  -28.9655 -10.0685 -2.28783
LeftShoulder1  6.36295 -19.843 -20.7713
LeftArm  -13.8695 -50.8477 -41.0651
LeftForeArm  26.1294 -9.51449 -5.14715
LeftHand  -0.25398 0.0180481 5.50724
RightShoulder  1.86587 7.31473 9.98865
RightArm  -29.7274 51.6657 26.4999
RightForeArm  6.01154 3.34068 3.15944
RightHand  -1.04468 3.38703 -14.0448
LeftUpLeg  -44.8391 11.9819 -9.24548
LeftLeg  40.6148 -0.216702 0.209959
LeftFoot  -7.1325 -0.0865848 3.54358
LeftToes  1.06248e-005 4.65855e-005 -8.18498e-006
354
root  54.6762 36.8037 15.2715 -162.691 18.8091 174.842
RightUpLeg  -51.4636 -26.4466 -4.81596
RightLeg  28.5881 4.62384 2.48865
RightFoot  6.93913 -1.06417 6.85014
RightToes  0.000482159 0.542163 -0.142577
Spine  56.2055 -5.78138 10.7031
Spine1  7.5444 0.312785 -0.951229
HEad  -31.9765 -9.7512 -0.949693
LeftShoulder1  5.91642 -20.1851 -18.3243
LeftArm  -15.1812 -55.3614 -43.3159
LeftForeArm  25.0851 -8.70376 -4.39938
LeftHand  -0.25398 0.0180481 5.50724
RightShoulder  1.81342 8.08003 8.20459
RightArm  -35.3367 54.9582 20.336
RightForeArm  7.24453 0.262661 2.05613
RightHand  -0.869365 3.00895 -12.2679
LeftUpLeg  -51.5504 17.994 -12.9763
LeftLeg  42.4113 2.59709 2.93087
LeftFoot  -5.38603 -0.131545 3.1217
LeftToes  1.06248e-005 4.65855e-005 -8.18498e-006
355
root  55.9654 36.7079 15.5708 -158.747 17.1122 175.473
RightUpLeg  -57.6231 -26.9971 0.533364
RightLeg  32.1128 3.87353 2.37735
RightFoot  4.28244 -0.404909 3.19746
RightToes  0.000482159 0.542163 -0.142577
Spine  57.7263 -5.9501 11.227
Spine1  7.45803 0.738298 -1.19335
HEad  -35.003 -8.60198 -0.323596
LeftShoulder1  5.75395 -20.4868 -17.2505
LeftArm  -16.7135 -60.306 -43.4211
LeftForeArm  23.1511 -7.20781 -3.72391
LeftHand  -0.25398 0.0180481 5.50724
RightShoulder  1.74782 8.77481 6.60463
RightArm  -42.7154 58.3376 13.5304
RightForeArm  6.61614 -2.01043 0.844316
RightHand  -0.801799 2.85507 -11.5353
LeftUpLeg  -59.0472 25.3512 -20.1232
LeftLeg  42.4119 6.63757 6.83419
LeftFoot  -4.14197 -0.228628 4.03289
LeftToes  1.06248e-005 4.65855e-005 -8.18498e-006
356
root  57.1868 36.5731 15.7494 -154.851 15.3434 176.013
RightUpLeg  -63.1836 -27.3252 5.90994
RightLeg  34.5693 3.47391 2.31685
RightFoot  3.01225 -0.0649711 0.696655
RightToes  0.000482159 0.542163 -0.142577
Spine  59.0571 -6.14519 11.2872
Spine1  7.54931 0.800852 -1.21368
HEad  -37.6441 -6.93513 -0.0810362
LeftShoulder1  5.61887 -21.329 -15.7795
LeftArm  -19.7806 -64.4021 -40.5953
LeftForeArm  20.1994 -5.72338 -3.11577
LeftHand  -0.25398 0.0180481 5.50724
RightShoulder  1.61138 9.01523 5.06876
RightArm  -50.8307 61.5809 7.09717
RightForeArm  4.33245 -3.06015 -0.227919
RightHand  -0.800615 3.063 -11.2538
LeftUpLeg  -67.0445 30.6859 -28.6181
LeftLeg  41.4739 9.27121 9.06818
LeftFoot  -4.15762 -0.338137 5.79804
LeftToes  1.06248e-005 4.65855e-005 -8.18498e-006
357
root  58.307 36.3739 15.8054 -150.978 13.3176 176.599
RightUpLeg  -68.6519 -27.4484 11.2063
RightLeg  37.0899 2.87861 2.0638
RightFoot  1.99896 0.22614 -1.83398
RightToes  0.000482159 0.542163 -0.142577
Spine  60.2178 -6.45842 11.3054
Spine1  7.34626 0.575515 -1.09726
HEad  -39.8568 -4.88353 -0.0273795
LeftShoulder1  5.30348 -22.8776 -12.9958
LeftArm  -25.6373 -66.7014 -34.4415
LeftForeArm  16.5068 -4.6967 -2.38204
LeftHand  -0.25398 0.0180481 5.50724
RightShoulder  1.41124 8.93345 3.34709
RightArm  -58.1824 64.2338 1.5943
RightForeArm  2.11695 -3.04179 -0.933273
RightHand  -0.755611 3.43991 -10.2148
LeftUpLeg  -73.9852 32.6941 -34.7245
LeftLeg  40.4403 8.80058 8.34258
LeftFoot  -4.59963 -0.397549 7.20538
LeftToes  1.06248e-005 4.65855e-005 -8.18498e-006
358
root  59.3278 36.1715 15.7961 -147.432 11.4742 177.538
RightUpLeg  -73.3738 -26.678 16.067
RightLeg  39.529 2.08044 1.55717
RightFoot  0.218289 0.463466 -4.56234
RightToes  0.000482159 0.542163 -0.142577
Spine  61.4291 -6.52886 11.2672
Spine1  7.00629 0.455508 -0.989344
HEad  -41.546 -3.06703 -0.00794367
LeftShoulder1  5.08968 -24.2854 -10.9914
LeftArm  -32.8506 -68.4256 -26.8064
LeftForeArm  12.6193 -3.33602 -1.51607
LeftHand  -0.25398 0.0180481 5.50724
RightShoulder  1.19798 8.74823 1.56694
RightArm  -64.1393 66.1755 -3.39617
RightForeArm  0.574564 -2.62411 -1.19682
RightHand  -0.651221 3.78516 -8.54857
LeftUpLeg  -79.2934 33.1771 -37.4488
LeftLeg  39.8382 5.98297 5.70626
LeftFoot  -4.79064 -0.407297 7.60879
LeftToes  1.06248e-005 4.65855e-005 -8.18498e-006
359
root  60.2676 35.9776 15.7599 -144.703 10.0655 178.52
RightUpLeg  -76.7589 -25.5552 20.2599
RightLeg  41.4569 1.51252 1.1367
RightFoot  -1.58585 0.548172 -6.51679
RightToes  0.000482159 0.542163 -0.142577
Spine  62.828 -6.24976 10.8397
Spine1  6.89357 0.484923 -1.07158
HEad  -42.9424 -1.65172 0.129916
LeftShoulder1  5.29881 -24.7782 -11.4563
LeftArm  -40.3227 -71.1688 -18.8157
LeftForeArm  8.26284 -1.32354 -0.823695
LeftHand  -0.25398 0.0180481 5.50724
RightShoulder  1.03246 8.60364 0.150709
RightArm  -68.7776 67.5126 -8.39376
RightForeArm  -0.77719 -2.37513 -1.05526
RightHand  -0.542625 4.24749 -6.87449
LeftUpLeg  -83.9847 33.9574 -39.5838
LeftLeg  39.7615 2.79087 2.87153
LeftFoot  -4.8056 -0.400404 7.50903
LeftToes  1.06248e-005 4.65855e-005 -8.18498e-006
360
root  61.1179 35.7898 15.706 -142.793 8.96164 178.939
RightUpLeg  -79.3496 -25.0043 23.859
RightLeg  42.9829 1.28301 0.973786
RightFoot  -2.91638 0.55517 -7.78477
RightToes  0.000482159 0.542163 -0.142577
Spine  64.3692 -5.88008 9.7302
Spine1  6.7273 0.209121 -1.13058
HEad  -44.0852 -0.0918379 0.187067
LeftShoulder1  5.71972 -24.7932 -13.0775
LeftArm  -48.0453 -73.4196 -10.3595
LeftForeArm  2.72681 -0.0783349 -0.534884
LeftHand  -0.25398 0.0180481 5.50724
RightShoulder  0.893656 8.84804 -1.32399
RightArm  -71.4868 68.3582 -11.7882
RightForeArm  -1.96136 -2.26347 -0.73622
RightHand  -0.394487 4.88045 -4.82853
LeftUpLeg  -88.3342 34.7996 -42.7349
LeftLeg  39.8658 0.507385 0.840852
LeftFoot  -4.55036 -0.417305 7.48489
LeftToes  1.06248e-005 4.65855e-005 -8.18498e-006
361
root  61.873 35.6063 15.6425 -141.194 8.02156 179.079
RightUpLeg  -81.7185 -24.6767 27.1076
RightLeg  44.4188 1.14922 0.88727
RightFoot  -4.34395 0.530414 -9.13996
RightToes  0.000482159 0.542163 -0.142577
Spine  65.7635 -5.55298 8.49626
Spine1  6.35168 -0.180757 -1.35253
HEad  -44.9188 1.51965 0.0318352
LeftShoulder1  5.90068 -25.362 -13.3203
LeftArm  -54.0432 -73.2701 -4.08263
LeftForeArm  -3.22131 -0.707103 -0.287197
LeftHand  -0.25398 0.0180481 5.50724
RightShoulder  0.767595 9.09347 -2.63363
RightArm  -72.5801 69.147 -12.6598
RightForeArm  -3.36038 -1.99943 -0.462402
RightHand  -0.197679 5.65337 -2.48609
LeftUpLeg  -91.8999 35.0724 -45.3013
LeftLeg  40.0756 -1.00649 -0.522038
LeftFoot  -4.14443 -0.418771 7.05166
LeftToes  1.06248e-005 4.65855e-005 -8.18498e-006
362
root  62.5431 35.4208 15.5801 -139.565 7.22639 179.694
RightUpLeg  -83.5796 -23.7524 30.1324
RightLeg  45.6201 0.96244 0.724529
RightFoot  -5.9552 0.446959 -10.3003
RightToes  0.000482159 0.542163 -0.142577
Spine  66.7904 -5.06879 7.7111
Spine1  5.86156 -0.160428 -1.70425
HEad  -45.3166 2.49074 -0.673046
LeftShoulder1  6.13919 -26.3929 -13.3962
LeftArm  -57.6496 -71.5591 -1.41599
LeftForeArm  -6.96455 -2.99093 0.280003
LeftHand  -0.25398 0.0180481 5.50724
RightShoulder  0.699628 8.92785 -3.1627
RightArm  -73.8521 70.3927 -12.2923
RightForeArm  -6.14608 -1.71984 -0.408541
RightHand  -0.0933169 6.55943 -1.33698
LeftUpLeg  -94.9452 35.1241 -46.1701
LeftLeg  40.6072 -2.39434 -1.81316
LeftFoot  -3.94392 -0.343493 5.67277
LeftToes  1.06248e-005 4.65855e-005 -8.18498e-006
